<svg xmlns="http://www.w3.org/2000/svg" viewBox="0 0 124.2 124.2">
  <style>
    .x {
      fill: oklch(25% 0.04 5);

      @media (prefers-color-scheme: dark) {
        fill: oklch(98% 0.02 5);
      }
    }
  </style>
  <path class="x" d="M35.7 97.3c-3.3-1.4-5.2 0-7.5 1.9-5.2 3.3-7.5 8.5-11.8 12.3-.9 1.4-2.8 1.4-4.2.9 2.4-3.8 2.8-8.5 7.1-10.9 1.9-1.4 0-3.3 1.4-5.2 4.2-5.7 7.5-11.8 11.3-17.5 3.8-6.1 8.5-12.3 13.2-17.9s5.7-13.2 2.8-19.8c-1.9-7.5-3.8-15.1-6.6-22.6-1.4-2.8.9-4.2 3.3-5.7 4.7-2.4 9.4 0 13.2 1.9a16 16 0 0 1 9.4 8c.9 2.8 2.8 1.9 4.7 0a2131 2131 0 0 1 14.2-17c1.9-2.8 4.7-4.7 8-5.2 4.2 0 8-1.9 12.3.9 3.3 1.9 5.7 5.7 5.7 9.4s-1.4 9.9-5.2 13.2c-4.7 5.7-9 12.3-13.2 18.4-2.8 3.8-5.7 7.5-9 11.3-3.3 3.3-4.7 8-3.8 12.3a111 111 0 0 1 2.8 17.9c0 .9 0 1.9 1.4 2.4 1.9.9 3.3 3.3 2.4 5.2 0 .9 0 2.4.9 2.8 5.7 2.8 5.2 8 4.7 13.2 0 2.4.5 5.2 2.4 7.1 1.4 1.9-.9 9.4-3.3 9.4s-6.1-1.4-8-4.2c-3.8-6.1-7.1-12.3-9.9-18.4-2.8-5.2-5.7-10.9-9-16-1.4-2.4-3.3-2.4-5.2-.5-4.7 3.3-8 8.5-14.2 9.4-2.4 0-.9 2.8-1.4 4.2 0 2.4-2.4 3.8-4.7 4.2-1.9 0-3.8 0-5.2-.9-1.9-2.4.5-3.8 1.4-5.7l-.5.9Z"/>
</svg>