<svg xmlns="http://www.w3.org/2000/svg" width="30.79" height="31.509" viewBox="0"><path fill="#010101" d="M6.79 21.272c-.73-.52-1.272-.166-2.02.117-1.446.546-2.326 1.775-3.608 2.473-.32.175-.635.312-1.162.043.777-.862 1.168-2 2.356-2.396.602-.2.245-.82.65-1.186 1.328-1.202 2.516-2.558 3.808-3.8 1.375-1.323 2.72-2.707 4.244-3.837 1.74-1.29 1.916-3.035 1.746-4.868-.19-2.024.008-4.072-.468-6.08-.185-.774.458-1.033 1.13-1.22C14.85.137 15.843 1 16.78 1.666c.866.616 1.762 1.365 1.985 2.598.146.803.673.61 1.152.225 1.486-1.202 3-2.374 4.45-3.615.717-.61 1.293-1.013 2.4-.83 1.07.18 2.15-.01 3.017.883.746.772 1.108 1.473.98 2.707-.16 1.52-.984 2.29-1.987 3.117-1.514 1.248-2.895 2.64-4.314 3.99-.885.84-1.862 1.602-2.817 2.363-.998.793-1.523 1.583-1.64 2.943-.138 1.576.132 3.16-.193 4.712-.06.278-.004.454.2.624.487.41.603.898.33 1.493-.114.25-.188.57.065.783 1.304 1.084.923 2.326.424 3.63-.24.626-.153 1.297.112 1.94.25.603-.75 2.388-1.35 2.274-.825-.154-1.49-.72-1.847-1.54-.73-1.678-1.02-3.49-1.57-5.222-.48-1.506-.933-3.02-1.408-4.527-.23-.72-.734-.76-1.326-.475-1.33.642-2.477 1.688-4.1 1.687-.562 0-.372.667-.542 1.016-.244.498-.74.915-1.46.803-.513-.08-1.092-.25-1.286-.625-.317-.62.433-.924.734-1.348z"/></svg>