<svg xmlns="http://www.w3.org/2000/svg" width="30.79" height="31.509" viewBox="0"><path fill="#010101" d="M6.79 21.272c-.73-.521-1.272-.166-2.02.117-1.446.547-2.326 1.776-3.608 2.474-.321.175-.635.312-1.162.043.777-.862 1.168-1.999 2.356-2.396.602-.199.245-.819.65-1.186 1.328-1.202 2.516-2.558 3.808-3.801 1.375-1.322 2.719-2.706 4.244-3.836 1.741-1.29 1.916-3.035 1.746-4.868-.189-2.023.008-4.071-.468-6.079-.185-.774.458-1.033 1.131-1.22 1.382-.383 2.375.479 3.312 1.146.867.616 1.763 1.365 1.986 2.598.146.803.673.611 1.152.225 1.486-1.201 2.999-2.373 4.451-3.614.716-.611 1.292-1.013 2.4-.829 1.07.179 2.15-.012 3.016.882.746.772 1.108 1.473.979 2.707-.16 1.521-.983 2.291-1.986 3.117-1.514 1.248-2.895 2.64-4.314 3.989-.885.842-1.862 1.603-2.817 2.364-.998.793-1.523 1.583-1.641 2.943-.137 1.576.133 3.159-.192 4.712-.059.278-.004.454.199.624.488.411.604.898.332 1.493-.115.251-.189.571.064.783 1.304 1.084.923 2.326.424 3.631-.239.625-.153 1.296.112 1.938.251.604-.75 2.389-1.35 2.275-.825-.154-1.491-.721-1.847-1.539-.729-1.679-1.02-3.49-1.571-5.223-.479-1.506-.932-3.021-1.407-4.527-.228-.721-.733-.76-1.325-.475-1.331.642-2.477 1.688-4.1 1.687-.562-.001-.372.667-.542 1.016-.244.498-.739.915-1.461.803-.512-.081-1.091-.249-1.285-.625-.317-.62.433-.925.734-1.349z"/></svg>