<svg xmlns="http://www.w3.org/2000/svg" xmlns:xlink="http://www.w3.org/1999/xlink" version="1.1" id="Layer_1" x="0px" y="0px" width="126.071px" height="86.015px" viewBox="0 0 126.071 86.015" enable-background="new 0 0 126.071 86.015" xml:space="preserve"><style>.style0{stop-color: #FFF33B;}.style1{stop-color: #FFE029;}.style2{stop-color: #FFD218;}.style3{stop-color: #FEC90F;}.style4{stop-color: #FDC70C;}.style5{stop-color: #F3903F;}.style6{stop-color: #ED683C;}.style7{stop-color: #E93E3A;}.style8{fill-rule: evenodd;clip-rule: evenodd;fill: url(#SVGID_1_);}.style9{fill-rule: evenodd;clip-rule: evenodd;fill: url(#SVGID_2_);}</style><g><linearGradient id="SVGID_1_" gradientUnits="userSpaceOnUse" x1="0" y1="57.9" x2="126.1" y2="57.9"><stop offset="0" class="style0"/><stop offset="0.0253" class="style1"/><stop offset="0.0555" class="style2"/><stop offset="0.0865" class="style3"/><stop offset="0.1196" class="style4"/><stop offset="0.4468" class="style5"/><stop offset="0.8876" class="style6"/><stop offset="1" class="style7"/></linearGradient><path d="M123.83 61.289c0.699-0.99 1.181-2.178 2.241-2.973 c-0.365-0.032-0.957 0.332-1.005-0.242c-0.053-0.639-0.34-0.627-0.773-0.523c-0.528 0.123-0.544 0.582-0.396 0.9 c0.222 0.5 0.1 0.752-0.325 0.967c-0.195 0.097-0.299 0.201-0.206 0.463c0.343 0.979-0.966 1.254-0.923 2.1 c-0.149-0.043-0.332-0.043-0.44-0.133c-0.496-0.406-0.64-0.869 0.029-1.209c0.564-0.285 0.396-0.656 0.157-0.971 c-0.155-0.203-0.562-0.531-0.765-0.168c-0.888 1.604-3.248 2.352-2.741 4.797c0.083 0.402-0.344 0.975-0.879 1.2 c-0.219 0.074-0.439-0.037-0.489-0.365c-0.136-0.9-0.243-0.619-0.835-0.151c-1.129 0.891-1.831 2.257-3.099 2.9 c-1.081 0.545-1.947 1.336-2.935 1.979c-1.774 1.156-3.136 2.805-4.91 3.982c-2.562 1.703-5.119 3.328-8.157 4.1 c-1.759 0.449-3.517 0.715-5.315 0.648c-0.735-0.027-1.315-0.479-1.84-1.016c-2.094-2.146-1.658-4.771-1.05-7.193 c0.565-2.251 1.688-4.379 2.725-6.482c0.218-0.441 0.187-1.012 0.595-1.347c1.418-1.167 2.061-2.88 3.077-4.331 c1.048-1.494 2.09-3.01 3.293-4.373c0.532-0.604 0.177-1.267 0.571-1.848c1.188-1.754 2.92-3.002 4.19-4.674 c0.769-1.01 1.447-2.403 2.489-2.824c1.894-0.768 2.513-2.689 4.107-3.698c1.078-0.683 1.993-1.664 3.207-2.208 c0.851-0.38 1.094-0.101 1 0.759c-0.447 3.047-1.322 5.961-2.727 8.705c-0.157 0.309-0.15 0.5 0.1 0.7 c1.245 1.4 2.5 2.8 4.5 3.119c0.645 0.1 1.4 0.1 1.906-0.348c1.386-1.419 2.438-3.035 2.491-5.129 c0.014-0.47 0.045-1.014 0.282-1.389c0.681-1.079 0.806-2.333 1.219-3.493c0.404-1.137 0.402-2.522-0.014-3.514 c-0.942-2.242-2.753-3.932-4.767-5.26c-1.062-0.698-2.313-1.024-3.75-0.718c-0.948 0.203-2.073 0.229-3.048 0 c-1.243-0.238-2.371 0.254-3.567 0.25c-0.594-0.002-1.419 0.096-1.987 0.664c-2.103 2.103-4.877 3.325-6.954 5.6 c-1.365 1.477-1.432 1.49-2.781-0.042c-0.297-0.338 0.147-0.747-0.328-0.935c-0.072 0.069-0.152 0.148-0.232 0.2 c-0.293 0.286-0.52 0.879-1.038 0.443c-0.456-0.384-0.251-0.801 0.159-1.171c0.412-0.374 0.388-0.819 0.104-1.298 c-0.298-0.5-0.627-0.564-1.069-0.209c-0.306 0.248-0.387-0.097-0.566-0.211c-1.116-0.703-1.753-0.484-2.097 0.7 c-0.066 0.24-0.131 0.37-0.33 0.546c-0.754 0.67-1.449 1.408-2.158 2.13c-0.529 0.541-0.152 1.4-0.522 1.9 c-0.94 1.258-1.202 2.944-2.512 3.952c-1.021 0.789-1.079 2.192-1.933 3.059c-1.473 1.492-2.327 3.422-3.701 5 c-1.048 1.193-1.874 2.576-2.84 3.845c-0.889 1.166-1.165 2.723-2.484 3.627c-1.494 1.025-1.975 2.887-3.371 4.1 c-1.23 1.089-2.242 2.57-3.352 3.879c-1.092 1.288-2.106 2.644-3.109 4.002c-0.281 0.382-0.588 0.79-1.021 0.6 c-0.498-0.197-0.285-0.699-0.203-1.148c0.283-1.531 1.064-2.887 1.449-4.386c0.471-1.835 1.688-3.443 1.912-5.339 c0.199-1.678 1.043-2.992 1.785-4.417c0.475-0.911 1.227-1.618 1.557-2.653c0.514-1.611 1.6-2.986 2.503-4.39 c0.617-0.958 1.593-1.761 2.048-2.861c0.834-2.016 2.799-3.642 1.679-6.327c-0.552-1.323-0.698-2.24-2.073-2.403 c-1.369-0.162-2.59-0.82-3.982-0.917c-1.322-0.091-2.355 0.219-3.057 1.344c-0.104 0.167-0.293 0.29-0.372 0.5 c-1.081 2.373-3.992 3.379-4.567 6.129c-0.056 0.268-0.352 0.295-0.547 0.422c-2.104 1.377-3.215 3.635-4.801 5.5 c-1.575 1.819-3.092 3.674-4.839 5.343c-0.711 0.681-1.502 1.271-2.173 1.999c-2.093 2.279-3.321 5.244-6.01 7.1 c-1.325 0.91-2.183 2.494-3.279 3.75c-0.464 0.53-1.134 1.356-1.724 0.953c-0.763-0.521-0.114-1.384 0.3-1.99 c1.86-2.721 3.073-5.772 4.515-8.707c0.667-1.36 1.129-2.906 2.089-4.017c1.571-1.815 2.694-3.905 4.009-5.863 c1.504-2.242 2.647-4.724 4.284-6.899c0.537-0.712 0.385-1.428-0.284-2.013c-0.198-0.173-0.378-0.457-0.519-0.551 c-0.932-0.624-1.177-2.165-2.577-2.092c-1.283 0.066-2.259-0.947-3.679-0.692c-1.255 0.227-3 0.599-3.231 1.7 c-0.29 1.417-1.449 2.145-2.196 3.129c-1.545 2.035-3.635 3.65-5.23 5.653c-3.72 4.672-7.574 9.227-11.497 13.7 c-2.632 3.021-5.001 6.264-7.688 9.244c-1.494 1.658-2.842 3.441-4.651 4.802c-0.694 0.522-1.522 0.312-1.516-0.229 c0.013-1.418-0.675-2.764-0.329-4.198c0.175-0.73 0.724-1.229 1.009-1.89c0.551-1.273 0.93-2.725 1.808-3.727 c0.725-0.83 0.672-1.72 0.437-2.289c-0.552-1.33-0.039-2.409 0.682-3.179c1.299-1.384 1.978-3.107 3.022-4.617 c1.106-1.6 1.345-3.688 2.722-5.091c0.907-0.925 1.447-1.971 1.847-3.137c0.472-1.375 1.136-2.588 2.456-3.338 c0.158-0.09 0.287-0.287 0.36-0.462c0.952-2.281 2.51-4.19 3.809-6.258c0.632-1.006 1.358-1.965 1.055-3.304 c-0.233-1.032-0.907-1.835-1.394-2.707c-0.251-0.452-0.639-1.38-1.29-1.314c-1.428 0.143-2.747-1.624-4.205-0.213 c-0.021 0.021-0.085 0.022-0.116 0.007c-0.755-0.395-1.188 0.185-1.787 0.468c-0.789 0.373-0.812 1.19-1.319 1.6 c-2.473 2.245-3.981 5.179-5.536 8.018c-1.298 2.375-3.288 4.245-4.304 6.856c-0.897 2.307-2.793 4.211-3.818 6.5 C4.688 55.4 4.2 57 3.2 58.311c-0.115 0.156-0.188 0.357-0.232 0.549c-0.304 1.316-0.891 2.535-1.273 3.8 c-0.489 1.659-1.269 3.218-1.553 4.965c-0.13 0.8 0.4 1.4 0.2 2.208c-0.349 1.196-0.38 2.433-0.231 3.7 c0.364 3.1 1.8 5.6 3.8 7.802c2.153 2.3 4.3 4.6 7.9 4.649c2.186 0.1 4.047-0.395 5.865-1.518 c1.614-0.998 2.889-2.352 4.198-3.673c1.528-1.542 3.118-3.019 4.322-4.871c1.189-1.829 1.615-1.73 2.8 0.2 c1.183 1.9 2.5 3.6 4.6 4.562c0.848 0.4 1.8 0.4 2.6 0.848c1.786 1 3.5 0.9 5.317-0.046 c1.229-0.624 2.225-1.524 3.324-2.312c2.322-1.66 4.096-3.865 6.107-5.836c1.134-1.109 1.375-2.771 2.417-3.965 c0.043 0.1 0.1 0.2 0.1 0.283c0.044 0.2 0.1 0.5 0.1 0.709c0.306 2.3 0.8 4.6 2.3 6.5 c0.518 0.7 1.1 1.3 1.5 1.982c0.9 1.3 1.8 2.7 3.7 2.517c0.436-0.038 0.4 0.4 0.5 0.5 c0.968 0.9 2 1.6 3.4 1.256c2.588-0.574 4.836-1.729 6.634-3.733c1.41-1.57 3.039-2.974 3.438-5.202 c0.054-0.303 0.257-0.545 0.493-0.647c1.656-0.722 2.562-2.196 3.623-3.521c0.333-0.415 0.693-0.328 0.8 0.1 c0.263 1.4 1.4 2.3 1.8 3.634c1.219 3.9 4.3 6.2 7.4 8.504c2.43 1.8 5.4 2.3 8.2 3.3 c0.314 0.1 0.7 0 1.1 0.031c0.904-0.031 1.733-0.643 2.494-0.717c3.059-0.297 6.03-0.58 8.437-2.809 c1.552-1.438 3.581-2.408 4.334-4.599c0.101-0.294 0.338-0.419 0.658-0.413c0.335 0 0.629-0.089 0.806-0.416 c0.854-1.605 2.534-2.329 3.767-3.531c0.6-0.582 1.094-1.172 0.842-2.151c-0.228-0.886 0.892-2.101 1.816-2.126 c1.015-0.027 1.63-0.626 1.576-1.607c-0.029-0.521 0.175-0.898 0.462-1.308c0.546-0.774 1.124-1.554 1.243-2.646 c-0.638 0.373-0.779 0.931-1.028 1.424c-0.155 0.307-0.456 0.462-0.798 0.428c-0.124-0.012-0.235-0.172-0.353-0.262 c0.88-0.645-0.07-1.54 0.321-2.348C123.196 62.1 123.6 61.7 123.8 61.289z" class="style8"/><linearGradient id="SVGID_2_" gradientUnits="userSpaceOnUse" x1="23" y1="15.8" x2="53.8" y2="15.8"><stop offset="0" class="style0"/><stop offset="0.0253" class="style1"/><stop offset="0.0555" class="style2"/><stop offset="0.0865" class="style3"/><stop offset="0.1196" class="style4"/><stop offset="0.4468" class="style5"/><stop offset="0.8876" class="style6"/><stop offset="1" class="style7"/></linearGradient><path d="M24.156 23.864c1.282-0.696 2.163-1.926 3.608-2.474 c0.746-0.283 1.289-0.638 2.019-0.117c-0.3 0.424-1.05 0.729-0.732 1.347c0.194 0.4 0.8 0.5 1.3 0.6 c0.722 0.1 1.217-0.305 1.461-0.803c0.17-0.347-0.021-1.016 0.542-1.015c1.623 0 2.769-1.045 4.1-1.687 c0.591-0.285 1.097-0.246 1.3 0.475c0.476 1.5 0.9 3 1.4 4.527c0.552 1.7 0.8 3.5 1.6 5.2 c0.356 0.8 1 1.4 1.8 1.539c0.601 0.1 1.602-1.671 1.35-2.276c-0.266-0.641-0.352-1.312-0.113-1.937 c0.499-1.305 0.88-2.547-0.423-3.631c-0.255-0.211-0.181-0.531-0.065-0.783c0.273-0.595 0.157-1.082-0.332-1.493 c-0.203-0.17-0.258-0.346-0.199-0.624c0.325-1.553 0.056-3.136 0.192-4.712c0.116-1.361 0.643-2.151 1.641-2.944 c0.955-0.761 1.933-1.521 2.817-2.364c1.42-1.35 2.801-2.741 4.315-3.989c1.002-0.826 1.826-1.598 1.986-3.117 c0.13-1.235-0.232-1.935-0.979-2.708c-0.866-0.895-1.946-0.705-3.016-0.882c-1.108-0.184-1.685 0.217-2.4 0.8 c-1.453 1.241-2.964 2.413-4.452 3.614c-0.479 0.387-1.005 0.578-1.152-0.225c-0.224-1.232-1.119-1.981-1.986-2.597 C38.836 1 37.8 0.1 36.5 0.521c-0.673 0.187-1.315 0.446-1.131 1.22c0.477 2 0.3 4.1 0.5 6.1 c0.17 1.833-0.005 3.578-1.746 4.868c-1.525 1.131-2.868 2.515-4.244 3.836c-1.292 1.243-2.48 2.6-3.808 3.8 c-0.405 0.366-0.049 0.986-0.65 1.186c-1.189 0.396-1.579 1.534-2.357 2.396C23.521 24.2 23.8 24 24.2 23.864z" class="style9"/></g></svg>