<svg xmlns="http://www.w3.org/2000/svg" width="126.071" height="86.015" viewBox="0"><path fill-rule="evenodd" clip-rule="evenodd" d="M94.891 37.606c.476.188.031.597.328.935 1.35 1.531 1.416 1.518 2.781.042 2.077-2.24 4.852-3.462 6.954-5.565.568-.567 1.394-.666 1.987-.664 1.196.005 2.324-.487 3.567-.25.975.186 2.1.159 3.048-.044 1.437-.307 2.688.02 3.75.718 2.014 1.328 3.824 3.018 4.767 5.26.416.991.418 2.377.014 3.514-.413 1.159-.538 2.414-1.219 3.493-.237.375-.269.919-.282 1.389-.054 2.094-1.105 3.71-2.491 5.129-.476.488-1.262.467-1.906.348-1.946-.356-3.214-1.736-4.459-3.119-.209-.232-.216-.435-.059-.743 1.404-2.744 2.279-5.658 2.727-8.705.126-.86-.117-1.139-.968-.759-1.214.545-2.129 1.525-3.207 2.208-1.595 1.009-2.214 2.931-4.107 3.698-1.042.421-1.721 1.814-2.489 2.824-1.271 1.672-3.003 2.92-4.19 4.674-.395.581-.039 1.244-.571 1.848-1.203 1.363-2.245 2.879-3.293 4.373-1.017 1.451-1.659 3.164-3.077 4.331-.408.335-.377.905-.595 1.347-1.036 2.104-2.159 4.231-2.725 6.482-.608 2.422-1.044 5.047 1.05 7.193.524.536 1.104.988 1.84 1.016 1.799.066 3.557-.199 5.315-.648 3.038-.775 5.595-2.4 8.157-4.104 1.774-1.178 3.136-2.826 4.91-3.982.987-.643 1.854-1.434 2.935-1.979 1.268-.643 1.97-2.009 3.099-2.899.592-.468.699-.749.835.151.05.328.271.439.489.365.535-.182.962-.754.879-1.156-.507-2.445 1.854-3.193 2.741-4.797.202-.363.609-.035.765.168.238.314.407.686-.157.971-.669.34-.525.803-.029 1.209.108.09.291.09.44.133-.043-.859 1.266-1.135.923-2.113-.093-.262.011-.366.206-.463.43-.215.547-.478.325-.967-.148-.334-.133-.793.396-.916.434-.104.721-.115.773.523.048.574.64.21 1.005.242-1.061.795-1.542 1.982-2.241 2.973-.268.379-.634.771-.865 1.25-.392.808.559 1.703-.321 2.348.117.09.229.25.353.262.342.034.643-.121.798-.428.249-.493.391-1.051 1.028-1.424-.119 1.092-.697 1.871-1.243 2.646-.287.409-.491.786-.462 1.308.054.981-.562 1.58-1.576 1.607-.925.025-2.044 1.24-1.816 2.126.252.979-.242 1.569-.842 2.151-1.232 1.202-2.913 1.926-3.767 3.531-.177.327-.471.422-.806.416-.32-.006-.558.119-.658.413-.753 2.19-2.782 3.161-4.334 4.599-2.406 2.229-5.378 2.512-8.437 2.809-.761.074-1.59.686-2.494.717-.355.014-.751.088-1.065-.031-2.748-1.043-5.734-1.541-8.164-3.329-3.096-2.28-6.211-4.594-7.43-8.504-.409-1.313-1.511-2.255-1.773-3.634-.086-.455-.446-.542-.779-.127-1.061 1.324-1.967 2.799-3.623 3.521-.236.103-.439.345-.493.647-.398 2.229-2.027 3.632-3.438 5.202-1.798 2.004-4.046 3.159-6.634 3.733-1.404.311-2.446-.371-3.414-1.256-.184-.17-.102-.568-.537-.53-1.906.166-2.771-1.186-3.672-2.517-.468-.692-1.023-1.326-1.541-1.982-1.496-1.895-1.962-4.148-2.268-6.459-.032-.236-.046-.475-.091-.709-.02-.104-.095-.197-.138-.283-1.042 1.193-1.283 2.855-2.417 3.965-2.011 1.971-3.785 4.176-6.107 5.836-1.099.787-2.095 1.688-3.324 2.312-1.795.909-3.531 1.036-5.317.046-.791-.438-1.709-.442-2.557-.848-2.106-1.004-3.41-2.712-4.593-4.562-1.208-1.892-1.635-1.99-2.824-.161-1.204 1.853-2.793 3.329-4.322 4.871-1.31 1.321-2.584 2.675-4.198 3.673-1.818 1.123-3.679 1.576-5.865 1.518-3.587-.098-5.727-2.342-7.88-4.649-2.053-2.198-3.476-4.737-3.84-7.802-.149-1.262-.118-2.498.231-3.694.229-.785-.291-1.417-.161-2.208.284-1.747 1.064-3.306 1.553-4.965.382-1.297.969-2.516 1.273-3.832.044-.191.117-.393.232-.549.987-1.34 1.474-2.9 2.146-4.393 1.025-2.277 2.921-4.182 3.818-6.488 1.016-2.611 3.005-4.481 4.304-6.856 1.555-2.839 3.063-5.773 5.536-8.018.508-.46.53-1.277 1.319-1.65.599-.283 1.032-.862 1.787-.468l.116-.007c1.458-1.411 2.777.356 4.205.213.651-.066 1.039.863 1.29 1.314.486.872 1.16 1.675 1.394 2.707.303 1.339-.423 2.298-1.055 3.304-1.299 2.067-2.857 3.977-3.809 6.258-.073.175-.202.372-.36.462-1.32.75-1.983 1.963-2.456 3.338-.399 1.166-.94 2.212-1.847 3.137-1.377 1.402-1.616 3.491-2.722 5.091-1.044 1.51-1.724 3.233-3.022 4.617-.721.77-1.234 1.849-.682 3.179.236.569.289 1.459-.437 2.289-.878 1.002-1.256 2.453-1.808 3.727-.285.66-.834 1.159-1.009 1.89-.346 1.435.342 2.78.329 4.198-.006.541.822.752 1.516.229 1.809-1.36 3.157-3.144 4.651-4.802 2.687-2.98 5.055-6.223 7.688-9.244 3.922-4.5 7.776-9.055 11.497-13.727 1.596-2.003 3.686-3.618 5.23-5.653.748-.984 1.906-1.712 2.196-3.129.231-1.129 1.976-1.501 3.231-1.728 1.42-.255 2.396.758 3.679.692 1.4-.073 1.646 1.468 2.577 2.092l.519.551c.669.585.821 1.301.284 2.013-1.637 2.176-2.78 4.657-4.284 6.899-1.315 1.958-2.438 4.048-4.009 5.863-.96 1.11-1.422 2.656-2.089 4.017-1.441 2.935-2.654 5.986-4.515 8.707-.414.606-1.062 1.47-.3 1.99.589.403 1.26-.423 1.724-.953 1.096-1.256 1.954-2.84 3.279-3.75 2.688-1.848 3.917-4.812 6.01-7.092.671-.729 1.461-1.318 2.173-1.999 1.747-1.669 3.264-3.523 4.839-5.343 1.586-1.832 2.698-4.09 4.801-5.467.195-.127.491-.154.547-.422.575-2.75 3.486-3.756 4.567-6.129.079-.175.268-.297.372-.465.701-1.125 1.734-1.435 3.057-1.344 1.393.096 2.613.754 3.982.917 1.375.163 1.521 1.08 2.073 2.403 1.12 2.685-.845 4.311-1.679 6.327-.455 1.101-1.431 1.903-2.048 2.861-.903 1.403-1.989 2.778-2.503 4.39-.33 1.035-1.082 1.742-1.557 2.653-.742 1.425-1.586 2.739-1.785 4.417-.225 1.896-1.441 3.504-1.912 5.339-.385 1.499-1.166 2.854-1.449 4.386-.082.449-.295.951.203 1.148.434.172.74-.236 1.021-.618 1.003-1.358 2.018-2.714 3.109-4.002 1.109-1.309 2.121-2.79 3.352-3.879 1.396-1.235 1.877-3.097 3.371-4.122 1.319-.904 1.596-2.461 2.484-3.627.966-1.269 1.792-2.651 2.84-3.845 1.374-1.569 2.229-3.499 3.701-4.991.854-.866.911-2.27 1.933-3.059 1.31-1.008 1.571-2.694 2.512-3.952.37-.496-.007-1.355.522-1.896.709-.722 1.404-1.459 2.158-2.13.199-.176.264-.306.33-.546.344-1.231.98-1.45 2.097-.748.18.114.261.459.566.211.442-.355.771-.291 1.069.209.284.479.309.924-.104 1.298-.41.371-.615.788-.159 1.171.519.436.745-.157 1.038-.443l.235-.23zm-65.108-16.333c-.73-.521-1.272-.166-2.019.117-1.446.547-2.326 1.777-3.608 2.474-.322.175-.635.312-1.163.043.778-.862 1.168-1.999 2.357-2.396.601-.2.245-.82.65-1.186 1.328-1.202 2.516-2.558 3.808-3.801 1.375-1.322 2.719-2.706 4.244-3.836 1.741-1.29 1.916-3.035 1.746-4.868-.189-2.023.008-4.071-.468-6.079-.184-.774.458-1.033 1.131-1.22 1.382-.383 2.375.479 3.312 1.146.867.616 1.762 1.365 1.986 2.597.146.803.673.612 1.152.225 1.487-1.201 2.999-2.373 4.452-3.614.715-.612 1.292-1.013 2.4-.829 1.07.178 2.15-.012 3.016.882.746.772 1.108 1.472.978 2.707-.16 1.52-.983 2.291-1.986 3.117-1.514 1.248-2.895 2.639-4.315 3.989-.884.842-1.862 1.603-2.817 2.364-.998.793-1.524 1.583-1.641 2.944-.136 1.576.133 3.159-.192 4.712-.059.278-.004.454.199.624.488.411.605.898.332 1.493-.115.251-.189.571.065.783 1.303 1.084.922 2.326.423 3.631-.239.625-.153 1.296.113 1.937.251.604-.75 2.389-1.35 2.276-.825-.155-1.491-.721-1.847-1.539-.729-1.679-1.019-3.491-1.571-5.223-.479-1.506-.931-3.021-1.407-4.527-.228-.721-.733-.76-1.325-.475-1.331.642-2.477 1.688-4.1 1.687-.562-.001-.372.667-.542 1.015-.244.498-.739.915-1.461.803-.512-.081-1.091-.249-1.285-.625-.317-.619.433-.924.733-1.348z"/></svg>