<svg xmlns="http://www.w3.org/2000/svg" width="126.071" height="86.015" viewBox="0"><path fill-rule="evenodd" clip-rule="evenodd" d="M94.89 37.606c.477.188.032.597.33.935 1.35 1.532 1.415 1.52 2.78.043 2.077-2.24 4.852-3.462 6.954-5.565.568-.567 1.394-.666 1.987-.664 1.197.005 2.325-.487 3.568-.25.975.186 2.1.16 3.048-.044 1.437-.307 2.688.02 3.75.718 2.014 1.328 3.824 3.018 4.767 5.26.416.99.418 2.377.014 3.514-.413 1.16-.538 2.414-1.22 3.493-.236.375-.268.92-.28 1.39-.055 2.093-1.106 3.71-2.492 5.128-.476.488-1.262.467-1.906.348-1.947-.355-3.215-1.735-4.46-3.118-.21-.232-.216-.435-.06-.743 1.405-2.745 2.28-5.66 2.728-8.706.126-.86-.117-1.14-.968-.76-1.214.546-2.13 1.526-3.207 2.21-1.595 1.008-2.214 2.93-4.107 3.697-1.042.422-1.72 1.815-2.49 2.825-1.27 1.672-3.002 2.92-4.19 4.674-.394.58-.038 1.243-.57 1.847-1.203 1.363-2.245 2.88-3.293 4.373-1.017 1.45-1.66 3.164-3.077 4.33-.408.336-.377.906-.595 1.348-1.035 2.104-2.158 4.23-2.724 6.482-.608 2.422-1.044 5.047 1.05 7.193.524.536 1.104.988 1.84 1.016 1.8.065 3.557-.2 5.315-.65 3.04-.774 5.596-2.4 8.158-4.103 1.774-1.178 3.136-2.826 4.91-3.982.987-.643 1.854-1.434 2.935-1.98 1.268-.642 1.97-2.008 3.1-2.898.59-.468.698-.75.834.15.05.33.27.44.49.366.534-.182.96-.754.878-1.156-.507-2.445 1.854-3.193 2.74-4.797.203-.363.61-.035.766.168.24.314.408.686-.156.97-.67.34-.525.804-.03 1.21.11.09.292.09.44.133-.042-.858 1.267-1.134.924-2.112-.093-.262.01-.366.206-.463.43-.215.547-.478.325-.967-.15-.334-.134-.793.395-.916.434-.104.72-.115.773.523.048.574.64.21 1.005.242-1.06.795-1.542 1.982-2.24 2.973-.27.38-.635.77-.866 1.25-.392.808.56 1.703-.32 2.348.116.09.228.25.352.262.34.034.642-.12.797-.428.25-.493.39-1.05 1.028-1.424-.12 1.092-.697 1.87-1.243 2.646-.287.41-.49.786-.462 1.308.054.98-.562 1.58-1.576 1.607-.925.024-2.044 1.24-1.816 2.125.252.98-.242 1.57-.842 2.15-1.232 1.203-2.913 1.927-3.767 3.532-.178.327-.472.422-.807.416-.32-.006-.558.12-.658.413-.753 2.19-2.782 3.16-4.334 4.6-2.405 2.228-5.377 2.51-8.436 2.808-.76.074-1.59.686-2.494.717-.355.015-.75.09-1.065-.03-2.748-1.043-5.734-1.54-8.164-3.33-3.095-2.28-6.21-4.593-7.43-8.503-.408-1.313-1.51-2.255-1.772-3.634-.086-.455-.446-.542-.78-.127-1.06 1.324-1.966 2.8-3.622 3.52-.236.104-.44.346-.493.648-.398 2.23-2.027 3.632-3.438 5.202-1.798 2.004-4.046 3.16-6.634 3.733-1.403.31-2.445-.372-3.413-1.257-.184-.17-.102-.568-.537-.53-1.906.166-2.77-1.186-3.672-2.517-.468-.692-1.023-1.326-1.54-1.982-1.497-1.895-1.963-4.148-2.27-6.46-.03-.235-.045-.474-.09-.708-.02-.104-.095-.197-.138-.283-1.042 1.193-1.283 2.855-2.417 3.965-2.01 1.97-3.785 4.176-6.107 5.836-1.1.787-2.095 1.688-3.324 2.312-1.795.91-3.53 1.036-5.317.046-.79-.438-1.71-.442-2.557-.848-2.106-1.004-3.41-2.712-4.593-4.562-1.208-1.892-1.635-1.99-2.824-.16-1.203 1.852-2.792 3.328-4.32 4.87-1.31 1.32-2.585 2.675-4.2 3.673-1.817 1.123-3.678 1.576-5.864 1.518-3.587-.098-5.727-2.342-7.88-4.65-2.053-2.197-3.476-4.736-3.84-7.8-.15-1.263-.118-2.5.23-3.695.23-.785-.29-1.417-.16-2.208.284-1.747 1.064-3.306 1.553-4.965.38-1.297.968-2.516 1.272-3.832.044-.19.117-.393.232-.55.987-1.34 1.474-2.9 2.146-4.392 1.025-2.276 2.92-4.18 3.818-6.487 1.016-2.61 3.005-4.48 4.304-6.856 1.555-2.84 3.063-5.773 5.536-8.018.508-.46.53-1.278 1.32-1.65.598-.284 1.03-.863 1.786-.47.03.016.094.014.116-.006 1.458-1.41 2.777.356 4.205.213.65-.066 1.04.863 1.29 1.314.486.873 1.16 1.676 1.394 2.708.302 1.34-.424 2.298-1.056 3.304-1.3 2.067-2.857 3.977-3.81 6.258-.072.175-.2.372-.36.462-1.32.75-1.982 1.963-2.455 3.338-.4 1.166-.94 2.212-1.848 3.137-1.377 1.402-1.616 3.49-2.722 5.09-1.044 1.51-1.724 3.234-3.022 4.618-.72.77-1.234 1.85-.682 3.18.236.568.29 1.458-.437 2.288-.88 1.002-1.257 2.453-1.81 3.727-.284.66-.833 1.16-1.008 1.89-.346 1.435.342 2.78.33 4.198-.007.54.82.752 1.515.23 1.81-1.36 3.157-3.145 4.65-4.803 2.688-2.98 5.056-6.223 7.69-9.244 3.92-4.5 7.775-9.054 11.496-13.726 1.596-2.003 3.686-3.618 5.23-5.653.748-.983 1.906-1.71 2.196-3.128.23-1.13 1.975-1.5 3.23-1.728 1.42-.255 2.396.758 3.68.692 1.4-.073 1.645 1.468 2.576 2.092.14.094.32.378.52.55.668.586.82 1.302.283 2.014-1.638 2.176-2.78 4.657-4.285 6.9-1.315 1.957-2.438 4.047-4.01 5.862-.96 1.11-1.42 2.656-2.088 4.017-1.44 2.936-2.654 5.987-4.515 8.708-.414.606-1.062 1.47-.3 1.99.59.403 1.26-.423 1.724-.953 1.096-1.256 1.954-2.84 3.28-3.75 2.687-1.848 3.916-4.812 6.01-7.092.67-.73 1.46-1.318 2.172-2 1.747-1.668 3.264-3.522 4.84-5.342 1.585-1.83 2.697-4.09 4.8-5.466.195-.127.49-.154.547-.422.575-2.75 3.486-3.756 4.567-6.13.08-.174.268-.296.372-.464.7-1.125 1.734-1.435 3.057-1.344 1.394.096 2.614.754 3.983.917 1.375.164 1.52 1.08 2.073 2.404 1.12 2.685-.845 4.31-1.68 6.327-.454 1.102-1.43 1.904-2.047 2.862-.904 1.403-1.99 2.778-2.504 4.39-.33 1.035-1.082 1.742-1.557 2.653-.743 1.425-1.587 2.74-1.786 4.417-.225 1.896-1.44 3.504-1.912 5.34-.385 1.498-1.166 2.853-1.45 4.385-.08.45-.294.95.204 1.148.434.172.74-.236 1.02-.618 1.004-1.358 2.02-2.714 3.11-4.002 1.11-1.31 2.12-2.79 3.352-3.88 1.396-1.234 1.877-3.096 3.37-4.12 1.32-.905 1.597-2.462 2.485-3.628.966-1.27 1.792-2.65 2.84-3.845 1.374-1.57 2.23-3.5 3.7-4.99.855-.867.912-2.27 1.934-3.06 1.31-1.008 1.57-2.694 2.512-3.952.37-.496-.008-1.355.52-1.896.71-.722 1.405-1.46 2.16-2.13.198-.176.263-.306.33-.546.343-1.23.98-1.45 2.096-.748.18.114.26.46.566.21.442-.354.77-.29 1.07.21.283.48.308.924-.105 1.298-.41.37-.615.788-.16 1.17.52.437.746-.156 1.04-.442.08-.082.16-.16.234-.23zM29.784 21.273c-.73-.52-1.272-.166-2.02.117-1.445.547-2.325 1.777-3.607 2.474-.322.175-.635.312-1.163.043.778-.862 1.168-2 2.357-2.396.6-.2.245-.82.65-1.185 1.328-1.202 2.516-2.558 3.808-3.8 1.375-1.323 2.72-2.707 4.244-3.837 1.74-1.29 1.916-3.035 1.746-4.868-.19-2.023.008-4.07-.468-6.08-.184-.773.458-1.032 1.13-1.22 1.383-.382 2.376.48 3.313 1.147.867.616 1.762 1.365 1.986 2.597.145.803.672.612 1.15.225 1.488-1.202 3-2.374 4.453-3.615.715-.612 1.292-1.013 2.4-.83 1.07.18 2.15-.01 3.016.883.745.772 1.107 1.472.977 2.707-.16 1.52-.983 2.29-1.986 3.117-1.513 1.248-2.894 2.64-4.314 3.99-.884.84-1.862 1.602-2.817 2.363-1 .793-1.525 1.583-1.642 2.944-.136 1.575.133 3.158-.192 4.71-.06.28-.004.455.2.625.487.41.604.898.33 1.493-.114.25-.188.57.066.783 1.303 1.085.922 2.327.423 3.632-.24.625-.153 1.296.113 1.937.25.603-.75 2.388-1.35 2.275-.825-.155-1.49-.72-1.847-1.54-.728-1.678-1.018-3.49-1.57-5.222-.48-1.506-.93-3.02-1.407-4.527-.228-.72-.733-.76-1.325-.475-1.33.643-2.477 1.69-4.1 1.688-.562 0-.372.667-.542 1.015-.244.498-.74.915-1.46.803-.513-.08-1.092-.25-1.286-.625-.317-.618.433-.923.733-1.347z"/></svg>